<svg id="Template" version="1.1" viewBox="0 0 24 24" xml:space="preserve" xmlns="http://www.w3.org/2000/svg"><path d="m2.062 8.9019c1.5693.37467 2.7747 1.0605 4.249 1.7019.70183.30534 1.3995.63635 2.1245.88421.41456.14174 1.2816.57119 1.7153.39806.28036-.11191.34597-.62853.53797-.84957.21374-.24607.61244-.28245.79198-.52621.37943-.51514-.30612-1.8311-.61017-2.2549-1.4661-2.0438-4.4627-1.6062-6.4994-.89184-.82288.28863-1.8853.73855-2.3092 1.5384m10.068 2.5864c1.1002-.54806 2.6202-2.2947 3.1495-3.4073l-.41773.89951-2.4547 2.7849.09236.09236c1.8814-.43544 2.9643-1.377 3.497-3.2329.083011-.28917.56273-1.4356.23078-1.6478-.30073-.19231-1.4661.44755-1.788.57631-1.759.70364-3.4688 1.8654-2.3092 3.935m-.64659-.9237c-2.0522-1.4442-3.7419-2.5746-6.3735-2.3933-.81798.056333-1.5946.34491-2.4016.45358.59719-.42605 1.505-.49333 2.2169-.56954 2.2059-.23616 5.4211.31724 6.5583 2.5093m1.6627 1.2932v.09236c3.4834 0 5.8811 2.0016 8.2209 4.3414-.96754-.68155-1.688-1.6586-2.6787-2.3327-1.7807-1.2116-3.84-1.6184-5.9117-2.0087.54805.9114.72513 1.8245 1.4284 2.6787 1.8792 2.2825 4.8992 3.1012 7.7162 2.3092-.34762-2.3539-1.6126-4.7216-3.6948-5.9622-.61646-.36729-1.5633-.86548-2.3079-.76576-.47592.06375-.74855.58752-1.1099.8572-.48983.36561-1.114.5338-1.6626.79042m-3.4177 2.0321c.8705.25731 2.0996.03374 2.8617-.46135.76701-.49828.2446-1.2805-.46007-1.4784l-.36948.55422c.19998-.5232-.0045-2.2726-.885-1.4375-.40484.38394-.33193 1.0395-.48202 1.5299-.14346.46872-.49218.8369-.66512 1.2932m2.0321-1.3855-.64659.64659.64659-.64659m9.6988 3.7872-.09238.09236z" fill="#019400" stroke="#000" stroke-width=".14041"/></svg>
