<svg id="Template" version="1.1" viewBox="0 0 24 24" xmlns="http://www.w3.org/2000/svg">
 <g transform="matrix(1.111 0 0 1.111 -.18418 -1.1646)" stroke="#000" stroke-linejoin="round" stroke-miterlimit="5.8" stroke-width=".1">
  <path d="m11.377 12.431c-1.2524 2.6024-5.0202 8.7193-5.7789 8.3541-.75874-.36515.98088-5.7631 2.2333-8.3656s1.5535-4.4067 3.4706-5.2763c.56682-.25713 1.5258-.27606 1.8497.25546.92554 1.5189-.86218 3.1362-1.7747 5.0323z" fill="#ff8d05"/>
  <path d="m11.037 6.4297c-.43128-1.0151-.92829-3.6263-.10054-3.3073.82776.31894.74123 2.2174.99598 1.6557.3054-.67343 1.7043-2.7679 2.1643-1.4569s-.37733 1.1015-.09803 1.2506c.35811.19115 1.5527-1.7134 2.0402-.92052s-1.3915 1.3827-1.0573 2.0875c.22516.47489 1.5155-.49519 1.5399.33872.02782.95204-2.1377 2.3097-4.4492 1.4131-.54762-.21242-.84198-.60621-1.0352-1.061z" fill="#13bc00"/>
 </g>
</svg>
