<svg width="32.795mm" height="34.769mm" version="1.1" viewBox="0 0 32.795 34.769" xmlns="http://www.w3.org/2000/svg">
 <g transform="translate(-16.814 -5.0865)">
  <path d="m32.635 14.54c-.04808-.000894-.09667-.000909-.14521.000517-1.4718.04323-2.6833 1.152-2.7688 2.5445-1.0984.1295-1.8921 1.0803-1.9084 2.2076l-.08733 6.1004-1.5162-1.2676c-.27436-.2294-.58259-.40756-.7607-.67099l-.84747-1.2534c-.1705-.3159-.52973-.54679-.84904-.5457-.1546.000602-.28353.05628-.3638.1571l-.90072 1.1312-.76843.92191c-.27018.32441.07378.95164.61495 1.1214l1.2858.5815c.29354.13275.5761.39951.8546.63238l2.5756 2.1539c.20498.17139.41645.31439.63252.42736.03982 1.1537 1.0572 2.0392 2.2205 2.005l6.1386-.17983c1.1966-.03515 2.1875-1.0316 2.0996-2.2304l-.01964-.26923.45062-.01344c1.5556-.04569 2.7954-1.3599 2.7497-2.9156l-.09302-3.1688c-.04569-1.5556-1.3605-2.7954-2.9161-2.7497l-.83922.02481-.02015-.27544c-.08279-1.1296-.93845-2.0345-2.05-2.0919-.16179-1.3393-1.3586-2.3514-2.7683-2.3776zm-.01705.93483c.94212.01602 1.6962.64726 1.8428 1.4619l-3.7977.1111c.10228-.85067.86622-1.543 1.8547-1.572.03379-.000992.06692-.0016.10025-.001zm5.7397 5.3139c.7357-.02161 1.3209.53037 1.3426 1.2661l.09302 3.1683c.02161.7357-.53037 1.3209-1.2661 1.3426l-.5178.01499-.42375-5.7692zm-5.8033-15.702c-.25848.0015-.51347.12556-.66611.35295l-14.94 22.258c-.24422.36383-.14472.86941.21911 1.1136l16.254 10.91c.36383.24422.8694.14472 1.1136-.21911l14.941-22.257c.24422-.36383.14472-.86992-.21911-1.1141l-4.1687-2.7983c-.34116-.4579-.96367-1.0431-1.726-1.6557.05785-.16203.06388-.33858.02635-.49868-.05152-.21975-.16676-.41994-.31678-.61495-.09265-.12044-.20134-.23922-.32039-.35657.50544-.051969.98559-.31903 1.2893-.77153.542-.80745.32376-1.909-.48369-2.451-.30279-.20325-.6467-.29993-.98702-.29869-.5672.0020655-1.1242.27617-1.463.78083-.2978.44365-.36617.97593-.23409 1.4557-.18069-.080041-.35618-.14214-.52607-.18293-.14049-.033738-.2785-.053578-.41393-.051676-.08126.00114-.16153.01022-.24081.028422-.16118.037009-.31604.12027-.43718.24185-.70404-.37169-1.3423-.64728-1.8283-.7674l-4.424-2.9698c-.13644-.091583-.29243-.13474-.44752-.13384zm-.01395.72812c.01653-.00325.03493.00132.05374.013953l3.7011 2.4846-1.65.59325 10.578 7.1003.1173-1.6221 3.5078 2.3544c.03764.02526.04438.06003.01912.09767l-14.94 22.257c-.02526.03764-.06003.04438-.09767.01912l-16.254-10.91c-.03764-.02526-.04438-.06003-.01912-.09767l14.94-22.257c.01263-.018819.0274-.029822.04392-.033073zm10.029 1.3834c.24041-.0003931.48357.068864.6997.21394.57634.38687.73 1.1595.34313 1.7358-.38687.57634-1.161.72845-1.7374.34158-.57634-.38687-.7269-1.1595-.34003-1.7358.24179-.36021.63388-.55487 1.0346-.55552z" fill="#FFFFFF" stroke-linejoin="round" stroke-miterlimit="10.4"/>
 </g>
</svg>
