<svg width="110.71mm" height="13.45mm" version="1.1" viewBox="0 0 110.71 13.45" xmlns="http://www.w3.org/2000/svg">
 <g transform="translate(-54.873 -10.64)">
  <path transform="skewX(-13.278)" d="m60.476 11.329h3.4882q1.8417 0 2.958 1.0511 1.1162 1.0511 1.1162 2.7719 0 1.8138-1.1348 2.8463-1.1255 1.0232-3.1254 1.0232h-.48369v4.7253h-2.8184zm2.8184 2.3812v2.9301q.94878-.0186 1.3953-.36277.45579-.34416.45579-1.0883 0-.79995-.43718-1.1255-.43718-.33486-1.4139-.35347zm6.6508-3.0696h2.7068v13.106h-2.7068zm9.0971 13.106v-1.1255h-.03721q-.49299.72554-.95808 1.0697-.45579.34416-1.079.34416-1.2185 0-1.9441-1.2464-.72554-1.2464-.72554-3.3858 0-2.0557.73484-3.2742.73484-1.2185 1.9348-1.2185.64182 0 1.0883.32556.44648.31626.93018 1.0232h.03721v-1.0697h2.7068v8.5576zm0-4.3253q0-2.1301-1.0418-2.1301-1.0511 0-1.0511 2.1301 0 2.2138 1.0883 2.2138 1.0046 0 1.0046-2.2138zm7.4507-4.2323v1.1627h.04651q.94878-1.4418 2.3161-1.4418.89297 0 1.4139.59531.5302.59531.5302 1.6092v6.6322h-2.7068v-5.2741q0-.43718-.20464-.71624-.20464-.27905-.5302-.27905-.86506 0-.86506 1.0883v5.1811h-2.6975v-8.5576zm6.6228.69763-.49299-2.5487v-2.3068h2.8556v2.3068l-.43718 2.5487zm4.4276-4.5579h2.8928v8.7437q0 .61392.32557.97668.32556.35347.87436.35347.56741 0 .89297-.38137.33486-.38137.33486-1.0511v-8.6413h2.8742v8.1483q0 1.665-.43719 2.6696-.43718 1.0046-1.2929 1.479-.84646.46509-2.372.46509-2.251 0-3.1719-1.1534-.92087-1.1534-.92087-3.8974zm13.032 3.8602v1.4325h.0372q.96738-1.6743 2.0371-1.6743.15813 0 .43719.05581v2.651q-.493-.08372-.91158-.08372-1.4883 0-1.4883 1.9255v4.2509h-2.6975v-8.5576zm17.478 1.5999v2.0836q0 2.4185-1.172 3.8044-1.1627 1.3767-3.1905 1.3767-2.2696 0-3.5068-1.7022-1.2371-1.7115-1.2371-4.8741 0-3.1905 1.2278-4.8369 1.2371-1.6557 3.6091-1.6557 2.6603 0 3.8509 2.837l-2.6882 1.1069q-.33486-.59531-.62321-.86506-.28836-.27905-.79065-.27905-.85577 0-1.2185.90227-.35347.89297-.35347 2.9021 0 1.8697.39998 2.7533.40927.87436 1.2929.87436 1.4139 0 1.4604-2.0185h-1.3116v-2.4092zm6.0368 6.9577v-1.1255h-.0372q-.49299.72554-.95808 1.0697-.45578.34416-1.079.34416-1.2185 0-1.9441-1.2464-.72554-1.2464-.72554-3.3858 0-2.0557.73484-3.2742t1.9348-1.2185q.64182 0 1.0883.32556.44649.31626.93018 1.0232h.0372v-1.0697h2.7068v8.5576zm0-4.3253q0-2.1301-1.0418-2.1301-1.0511 0-1.0511 2.1301 0 2.2138 1.0883 2.2138 1.0046 0 1.0046-2.2138zm7.3391-4.2323v1.4325h.0372q.96738-1.6743 2.0371-1.6743.15813 0 .43718.05581v2.651q-.49299-.08372-.91157-.08372-1.4883 0-1.4883 1.9255v4.2509h-2.6975v-8.5576zm8.232-4.5486h2.6882v13.106h-2.7068v-1.1255h-.0372q-.90227 1.4139-2.0371 1.4139-1.1906 0-1.9255-1.2464-.72553-1.2464-.72553-3.33 0-2.0743.74414-3.3114.74414-1.2371 1.9627-1.2371 1.1069 0 2.0371 1.2743zm0 8.7623q0-2.1115-1.0232-2.1115-1.0511 0-1.0511 2.2417 0 .99529.27906 1.5441.28835.5395.79064.5395.46509 0 .73484-.57671t.26975-1.6371zm8.7716 1.7301h2.2789q-.65112 2.8835-3.2556 2.8835-1.6278 0-2.5766-1.2371-.94878-1.2371-.94878-3.4137 0-2.0278.94878-3.2463.94878-1.2278 2.5208-1.2278.94878 0 1.8231.59531.87437.58601 1.2743 1.5627.39998.97668.44649 3.0789h-4.5114q.0558 1.9069 1.0604 1.9069.34416 0 .61391-.25115.26975-.25115.32556-.65112zm-1.9627-2.4743h1.9627q-.0279-.90227-.25114-1.3302-.22325-.43718-.70694-.43718-.5395 0-.77204.41858-.23255.41858-.23255 1.3488zm8.753-3.4696v1.1627h.0465q.94878-1.4418 2.3161-1.4418.89297 0 1.4139.59531.5302.59531.5302 1.6092v6.6322h-2.7068v-5.2741q0-.43718-.20464-.71624-.20464-.27905-.5302-.27905-.86507 0-.86507 1.0883v5.1811h-2.6975v-8.5576z" fill="#FFFFFF" stroke-linejoin="round" stroke-miterlimit="5.8" stroke-width=".026458" aria-label="Plan'Ur Garden"/>
 </g>
</svg>
