<svg id="Template" version="1.1" viewBox="0 0 24 24" xmlns="http://www.w3.org/2000/svg">
 <g transform="translate(-3.4314e-8 -.040966)" stroke="#000" stroke-linejoin="round" stroke-miterlimit="5.8">
  <path d="m10.413 7.7873c-4.1364.00131-7.5492 2.8819-7.544 6.8131.00179 3.9266 3.3507 7.1091 7.4821 7.1104.55332-.0061 1.228-.25597 1.7664-.37742 2.0706.87896 9.0093.89822 9.0131-6.733.0053-3.9312-3.2839-6.8118-7.4203-6.8131-.5373.00932-1.0719.073678-1.5947.19185-.55793-.12573-1.1292-.1901-1.7027-.19184z" fill="#ca0300" stroke-width=".61392"/>
  <path d="m17.459 10.662-4.9773-1.5201-5.2068 2.0257 2.1907-2.1184-3.7371.088621c-2.3638.056051 1.2336.11846 4.9319-1.3504 1.7055-.67737 1.4025-1.5619 2.1167-2.6172.72927-1.0776 2.2973-3.0849 2.7245-2.7953.72611.49229-.04237 1.6053-.62049 2.5576-.39205.64603-1.1373 1.9085-.74483 2.3907.50083.61545 1.5932.17106 2.3391.44177.91623.33255 2.5525 1.4267 2.5525 1.4267l-4.4303-.91507z" fill="#00ca19" stroke-width=".61392"/>
 </g>
</svg>
