<svg id="Template" version="1.1" viewBox="0 0 24 24" xmlns="http://www.w3.org/2000/svg">
 <path d="m0 0v24h24v-24zm5.4336.20703h.22656v.80664h.00781c.031-.031.073375-.069563.10938-.10156l.3711-.29883h.27734l-.48828.35938.55664.51172h-.2793l-.4375-.41797-.11719.089844v.32812h-.22656zm9.2793 0h.22852v.54297h.0059a.39.39 0 01.16402-.11133.643.643 0 01.23633-.044922.389.389 0 01.43945.37305v.51758h-.22852v-.5c0-.14-.07697-.25781-.29297-.25781a.338.338 0 00-.30859.1582.142.142 0 00-.01563.076172v.52539h-.22852zm-1.3594.0625c.085 0 .13867.041609.13867.099609s-.05353.10156-.14453.10156c-.091 0-.13867-.045562-.13867-.10156 0-.056.06053-.099609.14453-.099609zm2.9238 0c.086 0 .14062.041609.14062.099609s-.05448.10156-.14648.10156c-.092 0-.13672-.045562-.13672-.10156 0-.056.05858-.099609.14258-.099609zm-2.1465.09375v.25h.32812v.12109h-.32812v.46484c0 .108.04388.16992.17188.16992a.693.693 0 00.13281-.011719l.0098.11914a.78.78 0 01-.19922.021484.407.407 0 01-.24805-.066406.26.26 0 01-.08984-.22656v-.4707h-.19922l-.0039-.12109h.19922v-.20898zm-6.9707.23047c.412 0 .52148.25016.52148.41016a.471.471 0 01-.00781.074219h-.88672c0 .214.20059.30078.43359.30078a1.132 1.132 0 00.34766-.046875l.039063.11523a1.431 1.431 0 01-.41992.054687c-.388 0-.62109-.17741-.62109-.44141 0-.264.22575-.4668.59375-.4668zm1.3086 0h.00195c.412 0 .52148.25016.52148.41016a.374.374 0 01-.0078094.074219h-.88477c.006.214.20059.30078.43359.30078a1.135 1.135 0 00.34961-.046875l.039062.11523a1.436 1.436 0 01-.42188.052734c-.389 0-.62109-.17545-.62109-.43945 0-.264.22184-.4668.58984-.4668zm1.4668 0a.476.476 0 01.53516.44336c0 .313-.27622.46875-.57422.46875a.521.521 0 01-.38867-.13867h-.0078125v.47461h-.22461v-.94141c0-.112-.00477-.20016-.00977-.28516l.20508-.001953.00977.15039h.00586a.572.572 0 01.44922-.16992zm7.4648 0c.175 0 .44726.073094.44726.37109v.51953h-.23047v-.5c0-.14-.07597-.25586-.29297-.25586a.33.33 0 00-.30664.16211.172.172 0 00-.017578.070312v.52344h-.23047v-.63477a2.13 2.13 0 00-.0098-.23633h.20703l.01172.14453a.529.529 0 01.42191-.16406zm-6.2285.019531h.23438l.16797.44336c.036.1.07075.18639.09375.27539h.0078c.029-.087.06933-.17944.11133-.27344l.20703-.44531h.19141l.20117.43555c.047.1.08133.1992.11133.2832h.001965a2.02 2.02 0 01.09961-.28125l.17969-.4375h.22852l-.4082.87109h-.20898l-.19141-.41602a2.428 2.428 0 01-.11133-.28516 2.037 2.037 0 01-.11719.28711l-.19922.41406h-.20898zm2.0645 0h.23047v.87109h-.23047zm2.9258 0h.23047v.87109h-.23047zm-9.0645.091797a.328.328 0 00-.30859.25977h.67188c.002-.1-.06036-.25781-.31836-.25781a.328.328 0 00-.044922-.001953zm1.3086 0a.327.327 0 00-.30664.25977h.67188c0-.1-.064266-.25781-.32227-.25781a.327.327 0 00-.042969-.0019531zm1.5176.013672a.333.333 0 00-.058594.0019531.361.361 0 00-.34766.19922.183.183 0 00-.017578.060547v.15039a.26.26 0 00.011719.064453.355.355 0 00.3457.18555.333.333 0 10.066406-.66211zm-7.9238 1.2812h20v20h-20zm.00586 20.283h.23047v.54492a.384.384 0 01.16406-.11133.619.619 0 01.23633-.04492.389.389 0 01.43945.37305l.00586.51758h-.23047v-.5c0-.14-.075016-.25977-.29102-.25977a.34.34 0 00-.30859.1582.152.152 0 00-.015625.07617v.52539h-.23047zm3.6465 0h.22656v.54883h.00586a.54.54 0 01.43164-.16016c.312 0 .53325.17936.53125.44336a.506.506 0 01-.56445.4668l-.00195-.002a.516.516 0 01-.42383-.16206h-.00391l-.011719.14258h-.19921c.006-.059.00977-.14761.00977-.22461zm8.5703 0h.22852v1.2773h-.22852zm.61524 0h.22852v1.2773h-.22852zm2.1484.05859c.084 0 .14258.04261.14258.09961s-.05253.10352-.14453.10352l-.0039-.002c-.081 0-.13672-.04556-.13672-.10156 0-.056.05858-.09961.14258-.09961zm-13.42.002c.083 0 .14062.04261.14062.09961s-.050578.10156-.14258.10156h-.0019537c-.081 0-.13867-.04556-.13867-.10156 0-.056.059578-.09961.14258-.09961zm8.2598.0957v.25h.32812l-.0039.12109h-.32812v.46875c0 .108.04387.16992.17188.16992a.762.762 0 00.13281-.01172l.01172.12109a.888.888 0 01-.20117.01953.4.4 0 01-.24805-.06641.26.26 0 01-.08789-.22656v-.47461h-.20117v-.12109h.20117v-.20898zm4.4629 0v.25h.32813l-.0039.12109h-.33008v.46875c0 .108.04583.16992.17383.16992a.776.776 0 00.13281-.01172l.01172.12109a.9.9 0 01-.20117.01953.4.4 0 01-.24805-.06641.26.26 0 01-.08789-.22656v-.47461h-.20117v-.12109h.20117v-.20898zm-14.869.002v.25h.32812v.12101h-.32812v.46875c0 .108.043875.16992.17188.16992a.766.766 0 00.13281-.01172l.00977.12109a.872.872 0 01-.20117.01953.4.4 0 01-.24805-.06641.257.257 0 01-.087891-.22656v-.4746h-.19727v-.12109h.19531v-.20898zm18.736.22648c.412 0 .52344.25016.52344.41016a.384.384 0 010 .07813l-.0078-.002h-.88867c0 .214.20059.29883.43359.29883a1.172 1.172 0 00.34961-.04492l.03906.11328a1.4 1.4 0 01-.41992.05469c-.388 0-.62109-.1755-.62109-.4375s.2238-.4707.5918-.4707zm-12.479.002c.349 0 .60742.18127.60742.44727-.002.324-.32586.46484-.63086.46484l-.00391-.002c-.342 0-.59961-.17127-.59961-.44727 0-.291.27795-.46289.62695-.46289zm10.422 0a.387.387 0 01.35742.17383.458.458 0 01.14258-.11328.573.573 0 01.27734-.06055.373.373 0 01.41602.37891l-.01172.51172h-.22461v-.49414a.243.243 0 00-.27344-.26758.3.3 0 00-.27148.14453.18.18 0 00-.01953.07813v.53906h-.22266v-.52148a.233.233 0 00-.26367-.24023.31.31 0 00-.28516.1582.156.156 0 00-.01758.07813v.52539h-.22461v-.63477c0-.09.000234-.16333-.0098-.23633h.19922l.01172.14062h.01953a.487.487 0 01.40039-.16016zm3.2441 0a.836.836 0 01.31055.05469l-.05664.11524a.645.645 0 00-.25781-.05273c-.135 0-.21094.05514-.21094.11914 0 .064.07428.10544.23828.14844.219.057.33203.13272.33203.26172.011.156-.16094.26367-.46094.26367l-.0078-.002a.969.969 0 01-.35548-.058602l.05664-.12109a.78.78 0 00.30078.06445c.167 0 .24414-.05886.24414-.13086 0-.072-.06537-.11716-.23437-.16016-.228-.056-.33398-.14209-.33398-.24609 0-.14.16455-.25586.43555-.25586zm-16.898.002a.838.838 0 01.31055.05469l-.056641.11524a.659.659 0 00-.25977-.05273c-.135 0-.21094.05514-.21094.11914 0 .064.076235.10544.24023.14844.219.057.33203.13272.33203.26172.005.154-.16875.26172-.46875.26172h-.00195a.969.969 0 01-.35547-.05859l.058594-.12109a.779.779 0 00.29883.06445c.167 0 .24609-.05886.24609-.13086s-.064375-.11716-.23438-.16016c-.227-.056-.33398-.14209-.33398-.24609 0-.14.16355-.25586.43555-.25586zm6.2598.002c.385 0 .47852.18147.47852.35547v.32617a.876.876 0 00.02148.20898l-.20898-.0039-.01758-.10938h-.0078a.562.562 0 01-.38672.12891c-.255 0-.38476-.124-.38476-.25 0-.21.26981-.32522.75781-.32422v-.01563c0-.072-.02811-.20117-.28711-.20117a.828.828 0 00-.32812.06641l-.05274-.10352a1.065 1.065 0 01.41602-.07813zm2.6641 0c.386 0 .48047.18147.48047.35547v.32617a.827.827 0 00.02149.20898l-.20898-.0039-.01953-.10938h-.0059a.564.564 0 01-.38668.12876c-.255 0-.38477-.124-.38477-.25 0-.21.26981-.32522.75781-.32422v-.01563c0-.072-.02811-.20117-.28711-.20117a.828.828 0 00-.32813.06641l-.05273-.10352a1.06 1.06 0 01.41406-.07813zm-4.9805.01563h.25586l.17969.1875c.047.048.086906.09358.12891.14258h.00781c.042-.052.083-.10053.125-.14453l.17773-.18555h.24805l-.43164.41992.44336.45117h-.26367l-.18555-.20132c-.05-.05-.089766-.09939-.13477-.15039h-.0019531c-.042.053-.085812.09939-.13281.15039l-.18359.20117h-.25391l.44922-.44531zm8.4824 0h.22852l.002.87109h-.23047zm-13.416.002h.23047l-.0039063.8709h-.22656zm16.648.0918a.327.327 0 00-.30859.25977h.66992c.003-.101-.05936-.25781-.31836-.25781a.327.327 0 00-.04297-.002zm-12.486.0039a.345.345 0 00-.33594.3418.387.387 0 00.76758 0 .343.343 0 00-.37891-.33984.345.345 0 00-.052734-.002zm-1.3223.0098a.333.333 0 00-.050781.0039.364.364 0 00-.34961.19336.224.224 0 00-.013672.06445v.1582a.221.221 0 00.011719.05664.356.356 0 00.34375.18359.337.337 0 00.38477-.33398.333.333 0 00-.32617-.32617zm4.623.32031c-.2372.000728-.48633.03883-.48633.19726 0 .1.09884.15234.21484.15234a.325.325 0 00.30664-.14844.126.126 0 00.01172-.04883v-.15234c-.01563-.00025-.03106-4.9e-5-.04687 0zm2.668 0c-.23934.000728-.48633.03883-.48633.19726 0 .1.09984.15234.21484.15234a.324.324 0 00.30664-.14844.112.112 0 00.01367-.04883v-.15234c-.01581-.00025-.03287-4.9e-5-.04883 0z" fill="#ff1015"/>
 <g transform="translate(-3.4314e-8 -.040966)" stroke="#000" stroke-linejoin="round" stroke-miterlimit="5.8">
  <path d="m10.413 7.7873c-4.1364.00131-7.5492 2.8819-7.544 6.8131.00179 3.9266 3.3507 7.1091 7.4821 7.1104.55332-.0061 1.228-.25597 1.7664-.37742 2.0706.87896 9.0093.89822 9.0131-6.733.0053-3.9312-3.2839-6.8118-7.4203-6.8131-.5373.00932-1.0719.073678-1.5947.19185-.55793-.12573-1.1292-.1901-1.7027-.19184z" fill="#ca0300" stroke-width=".61392"/>
  <path d="m17.459 10.662-4.9773-1.5201-5.2068 2.0257 2.1907-2.1184-3.7371.088621c-2.3638.056051 1.2336.11846 4.9319-1.3504 1.7055-.67737 1.4025-1.5619 2.1167-2.6172.72927-1.0776 2.2973-3.0849 2.7245-2.7953.72611.49229-.04237 1.6053-.62049 2.5576-.39205.64603-1.1373 1.9085-.74483 2.3907.50083.61545 1.5932.17106 2.3391.44177.91623.33255 2.5525 1.4267 2.5525 1.4267l-4.4303-.91507z" fill="#00ca19" stroke-width=".61392"/>
 </g>
</svg>
